<svg xmlns="http://www.w3.org/2000/svg" viewBox="0 0 448.29 111.54"><defs><style>.cls-1{fill:#fefefe;}.cls-2{fill:#32baf6;}.cls-3{fill:#aaa;}.cls-4{fill:#fff;}</style></defs><g id="Calque_2" data-name="Calque 2"><g id="Calque_1-2" data-name="Calque 1"><path class="cls-1" d="M448.29,77v34.51H0V0H30.48a.19.19,0,0,1-.05.27A34.68,34.68,0,0,1,26.5.94,31.93,31.93,0,0,0,11.83,7.52,29.3,29.3,0,0,0,.81,28a41.76,41.76,0,0,0,1,14.73,28.83,28.83,0,0,0,6.1,11.36C13.45,60.69,20.77,64,29.21,64.9c3.95.44,7.92.09,11.88.17a1.42,1.42,0,0,0,1.12-.55c2.8-3,5.55-6.15,8.33-9.22C53,52.54,55.5,49.77,58,47a14.75,14.75,0,0,0,1.23-1.49,1.63,1.63,0,0,0-1.15-.19c-8.86,0-17.72,0-26.58,0-5.86,0-10.64-4-11.32-10.56a17.58,17.58,0,0,1,.29-5.7c1.27-5.52,5-8.66,10.62-9.15,1.43-.12,2.84-.15,4.27-.15q22.86,0,45.71,0a3.09,3.09,0,0,0,2.56-1.18c2.51-2.9,5.13-5.7,7.67-8.57s5.08-5.58,7.56-8.42c.39-.45.81-.85,1.23-1.26.13-.15.32-.23.45-.38H448.29V69.42a2.17,2.17,0,0,1-1.51.28H430.61a10,10,0,0,0-10.28,10.21q0,10,0,20c0,1.35,0,1.37,1.42,1.38h4c1.82,0,1.82,0,1.82-1.77V80.54c0-2.6,1-3.73,3.61-3.77,5.39-.08,10.77,0,16.16,0A1.32,1.32,0,0,1,448.29,77Z"/><path class="cls-2" d="M448.29,77c-.34,0-.68,0-1,0H431.49a7.34,7.34,0,0,0-1.48.13,2.52,2.52,0,0,0-2.17,2.42c0,.33,0,.68,0,1q0,9.83,0,19.65c0,1.41.07,1.22-1.27,1.22-1.89,0-3.78,0-5.66,0-.83,0-.84,0-.84-.79,0-7,0-14,0-21a10.21,10.21,0,0,1,8.39-10,10.33,10.33,0,0,1,2.21-.25h17.18a3.59,3.59,0,0,1,.46,0Z"/><path class="cls-3" d="M100.55,0c0,.15.06.32-.16.38A7,7,0,0,1,99.1.49H32.24c-.6,0-1.25.17-1.77-.32a.29.29,0,0,0,0-.16Z"/><path class="cls-2" d="M53.69,65.37l3.82-4.25q6.78-7.51,13.54-15a2.3,2.3,0,0,1,1.9-.86c5.51,0,11,0,16.54,0a34.05,34.05,0,0,1,22,7.9,28.3,28.3,0,0,1,9.69,15.36,36.94,36.94,0,0,1-.75,21.36,27.75,27.75,0,0,1-7.79,12,33.79,33.79,0,0,1-14.59,7.6,35.16,35.16,0,0,1-8.37,1H13.25a2.14,2.14,0,0,1,.65-.94L23,99.4c2.45-2.72,4.91-5.41,7.33-8.15a2.16,2.16,0,0,1,1.81-.84q28.94,0,57.88,0a14.48,14.48,0,0,0,5-.77,10.11,10.11,0,0,0,6.48-6.8,14.87,14.87,0,0,0-.47-10.78,10.9,10.9,0,0,0-9.3-6.59,28,28,0,0,0-3.43-.13H53.69Z"/><path d="M30.47.16,32,.18H99.37c.34,0,.74-.18,1,.19q-8.55,9.48-17.09,19a2.07,2.07,0,0,1-1.73.79q-24.43,0-48.88,0a15.18,15.18,0,0,0-4.4.55A10.28,10.28,0,0,0,21.41,27a15.26,15.26,0,0,0-.06,11.41,10.2,10.2,0,0,0,8,6.55,16.74,16.74,0,0,0,3.24.26H59.85a2,2,0,0,1-.59.83Q50.82,55.4,42.37,64.78a1.61,1.61,0,0,1-1.35.59c-3,0-6,.07-8.92,0-8.64-.27-16.35-3-22.61-9.09A29.15,29.15,0,0,1,.72,39a41.41,41.41,0,0,1,.36-14.39,29.76,29.76,0,0,1,13-19,33.2,33.2,0,0,1,13.17-5A28.88,28.88,0,0,1,30.47.16Z"/><path class="cls-2" d="M170.39,94.61c0-5,0-10.08,0-15.13s3.44-9,8.71-10a10.66,10.66,0,0,1,2.12-.21q7,0,13.93,0a11.22,11.22,0,0,1,5.7,1.42,10.42,10.42,0,0,1,4.88,6.93,8.28,8.28,0,0,1,.24,1.92c0,4,.07,7.92,0,11.88a10,10,0,0,1-7.65,9.57,11.74,11.74,0,0,1-3.12.43c-4.33,0-8.67,0-13,0-.15,0-.31,0-.46,0-.35,0-.5-.13-.5-.49q0-3.37,0-6.77c0-.36.19-.49.52-.49h13.56a2.7,2.7,0,0,0,3-2.83,3.69,3.69,0,0,0,0-.47q0-5,0-10a5.3,5.3,0,0,0-.14-1.19,2.44,2.44,0,0,0-2.22-2,8.24,8.24,0,0,0-1.11,0c-4.43,0-8.86,0-13.29,0-2.34,0-3.45,1.08-3.45,3.43,0,10,0,19.92,0,29.88,0,1.25.12,1.13-1.15,1.14h-5.48c-1.07,0-1.07,0-1.07-1.05V94.61Z"/><path d="M175.54,32H161.7a3.12,3.12,0,0,0-2.87,1.37,3.25,3.25,0,0,0,2.47,5.15q.47,0,.93,0h12.82c.31,0,.62,0,.92,0a3,3,0,0,0,2.81-2.73,6.11,6.11,0,0,0,0-.74V24.51a3.7,3.7,0,0,0-.17-1.28,3,3,0,0,0-2.51-2.06,6.85,6.85,0,0,0-1.2-.05H159.69c-.22,0-.43,0-.65,0-.41,0-.56-.14-.52-.54,0-.21,0-.43,0-.64,0-1.8,0-3.59,0-5.39,0-.91-.08-.82.86-.82,5.27,0,10.53,0,15.8,0a11.54,11.54,0,0,1,3.74.56,9.9,9.9,0,0,1,7,7.57,12.26,12.26,0,0,1,.25,2.77c0,3.49,0,7,0,10.48a11,11,0,0,1-1.09,4.93,9.53,9.53,0,0,1-8.73,5.78c-5.16.12-10.34.19-15.51,0a10,10,0,0,1-9.65-7.69,11.39,11.39,0,0,1,.73-7.61,9.79,9.79,0,0,1,9.3-6c4.52-.07,9,0,13.56,0,.71,0,.73,0,.74.61C175.55,27.38,175.54,29.61,175.54,32Z"/><path d="M259.37,45.92c-2.32,0-4.65,0-7,0A10.6,10.6,0,0,1,243,40.64a9.38,9.38,0,0,1-1.33-4.86c0-3.93-.07-7.86,0-11.78a10.16,10.16,0,0,1,8.12-9.88,14,14,0,0,1,3.22-.36l13.57,0a10.31,10.31,0,0,1,10.58,9.1,11.56,11.56,0,0,1,.16,1.85c0,3.4,0,6.8,0,10.21a12.28,12.28,0,0,1-.46,3.57c-1.2,4-4,6.19-7.92,7.14a13.48,13.48,0,0,1-3.42.28c-2,0-4.08,0-6.13,0Z"/><path class="cls-2" d="M229.45,69.25c2.36,0,4.71,0,7.06,0a10.8,10.8,0,0,1,7.94,3.26,9.82,9.82,0,0,1,2.77,6.6,11.25,11.25,0,0,1-2,7.27,9.69,9.69,0,0,1-8,4.16c-4.58.06-9.16,0-13.75,0-.76,0-.77,0-.78-.76V84c0-.76,0-.77.77-.77h12.27c.34,0,.68,0,1,0a3.13,3.13,0,0,0,3.19-3.44,3,3,0,0,0-3.15-3.09q-7.15,0-14.31,0a3,3,0,0,0-3.08,3.24c0,2.1,0,4.21,0,6.31,0,1.45,0,2.91,0,4.36A3.16,3.16,0,0,0,222.7,94c4.09,0,8.18,0,12.27,0,1.63,0,1.63,0,1.63,1.61s0,3.4,0,5.1c0,.66,0,.69-.68.69-4.67,0-9.36.14-14-.07a10,10,0,0,1-9.72-8.19,13,13,0,0,1-.24-2.49c0-3.47,0-6.93,0-10.39a11.44,11.44,0,0,1,1.87-6.5A9.78,9.78,0,0,1,222,69.26c2.48-.06,5,0,7.43,0Z"/><path class="cls-2" d="M352.35,101.48H342.6c-.22,0-.44,0-.65,0-.4,0-.55-.15-.55-.55,0-.89,0-1.79,0-2.69,0-1.29,0-2.59,0-3.89,0-.48.15-.65.63-.65,1.61,0,3.22,0,4.83,0H362.1a4.88,4.88,0,0,0,1.37-.15,2.51,2.51,0,0,0,1.93-2.23,4.34,4.34,0,0,0-.2-2.11,2.48,2.48,0,0,0-2.26-1.64,5.24,5.24,0,0,0-.56,0c-4,0-8.05-.07-12.07-.07A9.24,9.24,0,0,1,345,86.06a9.32,9.32,0,0,1-1.37-14.14,9.28,9.28,0,0,1,5.28-2.5,13.84,13.84,0,0,1,2.32-.15l17.09,0h.46c.42,0,.6.11.59.58,0,2.11,0,4.21,0,6.31,0,.86,0,.87-.86.87H350.85a3.48,3.48,0,0,0-1.2.11c-.71.25-.92.63-.83,1.53a1.09,1.09,0,0,0,1.06,1.09,6.06,6.06,0,0,0,.74,0c3.87,0,7.74,0,11.61,0a11.77,11.77,0,0,1,3.13.32c4.28,1.17,6.74,4.06,7.64,8.32a11.14,11.14,0,0,1-.43,6.21c-1.3,3.61-4,5.62-7.62,6.52a13.11,13.11,0,0,1-3.13.33Z"/><path class="cls-2" d="M396.39,101.5c-2.38,0-4.77,0-7.15,0A11.77,11.77,0,0,1,381.81,99,9.51,9.51,0,0,1,378,91.53c-.06-4,0-8,0-12a10.22,10.22,0,0,1,7.28-9.6A17.67,17.67,0,0,1,389,69.3c.78,0,.87,0,.87.78,0,2.1,0,4.21,0,6.31,0,.45-.1.72-.61.66a1.31,1.31,0,0,0-.28,0,2.85,2.85,0,0,0-3,3.21c0,3.44,0,6.87,0,10.3,0,2,1.06,3.13,3.08,3.14q7.38,0,14.77,0a2.7,2.7,0,0,0,3-2.95c0-3.59,0-7.18,0-10.76a2.67,2.67,0,0,0-2.46-2.87c-.83-.1-.83-.15-.83-1q0-3,0-6c0-.77,0-.77.77-.77a10.45,10.45,0,0,1,10.34,8.78,12.79,12.79,0,0,1,.19,2.31c0,3.49,0,7,0,10.48a9.87,9.87,0,0,1-3.21,7.54,11.55,11.55,0,0,1-6.33,2.87,17.14,17.14,0,0,1-2.68.15C400.54,101.49,398.47,101.5,396.39,101.5Z"/><path d="M283.84,31.37q0-6.64,0-13.27a5.09,5.09,0,0,1,.27-1.82,3.93,3.93,0,0,1,3.69-2.5H304.7A15.87,15.87,0,0,1,312,15.41a12.77,12.77,0,0,1,7.5,11.7c.17,6,.05,12.06.06,18.09a2.72,2.72,0,0,0,0,.28c0,.42-.17.52-.55.51q-3.3,0-6.6,0c-.48,0-.64-.15-.63-.64,0-1.51,0-3,0-4.54q0-6.32,0-12.62a6.6,6.6,0,0,0-.54-2.8,6.23,6.23,0,0,0-5.88-3.8c-2.51-.08-5,0-7.53,0h-5.11c-1.1,0-1.1,0-1.1,1.05V45.14c0,.81,0,.82-.79.82h-6.23c-.74,0-.75,0-.75-.77Z"/><path class="cls-2" d="M163.25,83.9V97.16a5.15,5.15,0,0,1-.16,1.56,3.72,3.72,0,0,1-3.56,2.63c-6,0-12,.11-18,0a13.91,13.91,0,0,1-11.66-6.21,12.3,12.3,0,0,1-2.18-7c0-5.69,0-11.38,0-17.07,0-.43,0-.86,0-1.29s.14-.56.54-.55c1,0,2,0,3,0h3.44c.74,0,.75,0,.75.79,0,1,0,2,0,3V86.79a7,7,0,0,0,.79,3.48,6,6,0,0,0,5.17,3.27c1.73.11,3.47,0,5.2,0,2.69,0,5.39,0,8.08,0,.94,0,.95,0,.95-1q0-11.13,0-22.26c0-1.27-.14-1.13,1.14-1.14h5.95c.66,0,.68,0,.68.67,0,3.77.08,7.54-.06,11.32,0,.89,0,1.79,0,2.69Z"/><path class="cls-2" d="M285.68,83.8V70.07c0-.8,0-.81.82-.81h6c.9,0,.91,0,.91.92V92.62c0,.79,0,.79.85.76a12.65,12.65,0,0,0,5.87-1.84,26.15,26.15,0,0,0,7.6-6.72A45.31,45.31,0,0,0,315.66,70c.23-.72.23-.74.94-.74h6.68c.76,0,.82.09.58.81a62.21,62.21,0,0,1-9.52,18.56A33.59,33.59,0,0,1,303,98.3a27.7,27.7,0,0,1-10.9,3.08c-.81.05-1.61.13-2.41.12a3.84,3.84,0,0,1-4-4c0-4.58,0-9.16,0-13.73Z"/><path d="M136.22,33.75c0,3.8,0,7.61,0,11.41,0,.7,0,.7-.7.71H129.1c-.8,0-.73.05-.73-.77l0-22.26v-.65c0-.69,0-.7-.73-.7h-8.45c-.91,0-.89.11-.89-.92,0-2,0-4,0-6,0-.93-.06-.81.87-.81h8.17a3.69,3.69,0,0,1,.47,0c.47.07.58-.17.55-.59s0-.68,0-1c0-2.72,0-5.45,0-8.17,0-.7,0-.71.7-.71,2.14,0,4.27,0,6.41,0,.71,0,.72,0,.72.7V13c0,.77,0,.7.72.7h11.8c1.11,0,1-.11,1,1,0,1.95,0,3.9,0,5.85,0,1.05,0,.93-1,.93H137.35c-.22,0-.43,0-.65,0s-.48.13-.47.48c0,.93,0,1.86,0,2.78C136.21,27.75,136.22,30.75,136.22,33.75Z"/><path d="M208.4,33.78V45.1c0,.88.07.79-.81.79h-6.32c-.7,0-.71,0-.71-.7V28.3c0-2,0-4.09,0-6.13,0-.65,0-.66-.65-.66h-8.27c-.22,0-.43,0-.65,0s-.49-.13-.48-.48c0-.75,0-1.49,0-2.23V14.44c0-.68,0-.69.72-.69h8.55c.87,0,.78.09.78-.8V4c0-.74,0-.75.77-.75h6.32c.77,0,.78,0,.78.83v8.72c0,1-.09.91.88.91l11.8,0c.84,0,.81-.08.81.79v6.22c0,.75,0,.75-.75.75-3.94,0-7.87,0-11.8,0a3.65,3.65,0,0,1-.47,0c-.37,0-.48.14-.47.49,0,1,0,2,0,3Z"/><path class="cls-2" d="M252.24,90.05c0-3.3,0-6.61,0-9.92a11.42,11.42,0,0,1,.82-4.43c1.55-3.67,4.47-5.55,8.26-6.28a13,13,0,0,1,2.49-.17h15.7c1.22,0,1.11-.13,1.12,1.07v5.84c0,.84,0,.85-.88.85H263.87c-.37,0-.74,0-1.11,0A2.66,2.66,0,0,0,260,79.64c0,.4,0,.8,0,1.2v19.29c0,.22,0,.44,0,.65,0,.43-.13.61-.58.6h-6.6c-.59,0-.6,0-.6-.75C252.23,97.1,252.24,93.58,252.24,90.05Z"/><path class="cls-2" d="M327,85.28V70.08c0-.79,0-.8.85-.81h5.94c1.07,0,1,0,1,1v.65q0,14.7,0,29.39c0,1.16.16,1.15-1.16,1.15h-5.29c-1.51,0-1.31.1-1.32-1.27V85.28Z"/><path d="M234.89,29.88V44.81a3.37,3.37,0,0,0,0,.55c0,.48-.19.58-.6.57-.68,0-1.37,0-2.05,0-1.51,0-3,0-4.54,0-.42,0-.67-.09-.59-.56,0-.12,0-.25,0-.37V15c0-1.45-.1-1.19,1.16-1.2h5.57c1.18,0,1.05-.15,1.06,1v15.1Z"/><path class="cls-2" d="M1.23,110.15V91.58c0-.22,0-.43,0-.65s.14-.52.5-.5h16.8l.44,0a.64.64,0,0,1,.06.11.11.11,0,0,1,0,.08L1.74,109.89A.58.58,0,0,1,1.23,110.15Z"/><path d="M94.49,20.06,112.05.56c.31.1.2.32.2.48q0,9.18,0,18.36c0,.71,0,.72-.69.72H95A4,4,0,0,1,94.49,20.06Z"/><path d="M398.48,79.12v7.6c0,.73,0,.71-.7.71-1,0-2,0-3.06,0-.46,0-.59-.15-.55-.58s0-.93,0-1.39c0-4.69,0-9.39,0-14.08,0-.75,0-.72.69-.72,1,0,2,0,3.06,0,.46,0,.57.15.57.58C398.47,73.88,398.48,76.5,398.48,79.12Z"/><path d="M231,.18c1.08,0,2.17,0,3.25,0,.44,0,.66.06.65.59,0,2,0,3.89,0,5.84,0,.5-.17.62-.64.62-2.2,0-4.39,0-6.59,0-.36,0-.57-.07-.56-.5q0-3,0-6c0-.44.19-.51.55-.5C228.8.19,229.91.18,231,.18Z"/><path class="cls-2" d="M330.83,55.7c1.08,0,2.16,0,3.24,0,.45,0,.67.1.67.61,0,2,0,3.89,0,5.83,0,.43-.12.61-.58.61-2.22,0-4.45,0-6.67,0-.41,0-.54-.17-.53-.56,0-2,0-3.95,0-5.92,0-.4.14-.55.54-.55C328.6,55.71,329.71,55.7,330.83,55.7Z"/><path class="cls-4" d="M259.46,38.19H253c-.24,0-.49,0-.74,0a2.71,2.71,0,0,1-2.82-3c0-3.56,0-7.11,0-10.67a2.7,2.7,0,0,1,3-3c4.21,0,8.42,0,12.63,0,.55,0,1.11,0,1.67,0a2.64,2.64,0,0,1,2.8,2.81q0,5.46,0,10.94c0,1.89-1.06,2.87-3,2.9-2.14,0-4.27,0-6.41,0Z"/></g></g></svg>